<svg xmlns="http://www.w3.org/2000/svg" width="60.043" height="50.753" viewBox="0 0 60.043 50.753">
  <g id="dashboard" transform="translate(-2.5 -9.8)">
    <g id="Group_1080" data-name="Group 1080" transform="translate(2.5 9.8)">
      <path id="Path_3823" data-name="Path 3823" d="M58.625,9.8H6.419A3.938,3.938,0,0,0,2.5,13.719V56.634a3.938,3.938,0,0,0,3.919,3.919H58.625a3.938,3.938,0,0,0,3.919-3.919V13.782A3.952,3.952,0,0,0,58.625,9.8ZM21.208,13.845a1.9,1.9,0,1,1-1.9,1.9A1.944,1.944,0,0,1,21.208,13.845Zm-5.878,0a1.9,1.9,0,1,1-1.9,1.9A1.862,1.862,0,0,1,15.33,13.845Zm-5.941,0a1.9,1.9,0,1,1-1.9,1.9A1.9,1.9,0,0,1,9.389,13.845Zm48.288,41.9H7.367V21.872h50.31V55.749Z" transform="translate(-2.5 -9.8)" fill="#fff"/>
      <path id="Path_3824" data-name="Path 3824" d="M75.154,43.5a7.13,7.13,0,0,0-7.016-6,7.306,7.306,0,0,0-2.339.442l3.034,5.625h6.32Z" transform="translate(-25.792 -19.993)" fill="#fff"/>
      <path id="Path_3825" data-name="Path 3825" d="M65.305,52.667a7.081,7.081,0,0,0,7.016-6H65.305a1.2,1.2,0,0,1-1.011-.569L60.944,39.9a7.09,7.09,0,0,0,4.361,12.767Z" transform="translate(-22.959 -20.876)" fill="#fff"/>
      <path id="Path_3826" data-name="Path 3826" d="M20.52,52.12a1.344,1.344,0,0,0,.948-.442l4.361-5.815,3.6,2.655a1.1,1.1,0,0,0,.885.19,1.172,1.172,0,0,0,.758-.442l4.3-5.815,1.2.885a.757.757,0,0,0,.885.063.937.937,0,0,0,.506-.758l.19-4.74a.905.905,0,0,0-.316-.7.836.836,0,0,0-.758-.126l-4.487,1.517a.911.911,0,0,0-.569.7.823.823,0,0,0,.316.822l1.2.885L29.874,45.99l-3.6-2.718a1.1,1.1,0,0,0-.885-.19,1.172,1.172,0,0,0-.758.442l-5.056,6.763a1.2,1.2,0,0,0,.253,1.643A1.274,1.274,0,0,0,20.52,52.12Z" transform="translate(-8.701 -19.823)" fill="#fff"/>
      <path id="Path_3827" data-name="Path 3827" d="M20.122,70.594h3.223a.837.837,0,0,0,.822-.822V65.222a.837.837,0,0,0-.822-.822H20.122a.837.837,0,0,0-.822.822v4.614A.825.825,0,0,0,20.122,70.594Z" transform="translate(-8.682 -29.891)" fill="#fff"/>
      <path id="Path_3828" data-name="Path 3828" d="M34.845,59.4H31.622a.837.837,0,0,0-.822.822V68a.837.837,0,0,0,.822.822h3.223A.837.837,0,0,0,35.667,68V60.222A.837.837,0,0,0,34.845,59.4Z" transform="translate(-12.913 -28.051)" fill="#fff"/>
      <path id="Path_3829" data-name="Path 3829" d="M43.022,54.3a.837.837,0,0,0-.822.822v11a.837.837,0,0,0,.822.822h3.223a.837.837,0,0,0,.822-.822v-11a.837.837,0,0,0-.822-.822Z" transform="translate(-17.108 -26.174)" fill="#fff"/>
      <path id="Path_3830" data-name="Path 3830" d="M59.022,71.367H71.6a.837.837,0,0,0,.822-.822V67.322A.837.837,0,0,0,71.6,66.5H59.022a.837.837,0,0,0-.822.822v3.287A.748.748,0,0,0,59.022,71.367Z" transform="translate(-22.996 -30.664)" fill="#fff"/>
    </g>
  </g>
</svg>
