<?xml version="1.0"?>
<svg xmlns="http://www.w3.org/2000/svg" id="Layer_1" data-name="Layer 1" viewBox="0 0 512 512" width="512" height="512"><title>Logistics Application</title><g id="_Group_2" data-name=" Group 2"><path d="M202.46,152.36V41.5a19.994,19.994,0,0,1,20-20h200a20,20,0,0,1,20,20v266a20,20,0,0,1-20,20h-200a19.977,19.977,0,0,1-20-20V286.82l30-30V274.5h180V54.5h-180v159l-2.83-2.83-27.17,21.51Z" style="fill:#f8ec7d"/><path d="M262.47,129.86h-.01v69.28l60,34.64,60-34.64V129.86h-.01L351.86,112.2l-29.4-16.98ZM412.46,54.5v220h-180V256.82l3.29-3.29a25.989,25.989,0,0,0,0-36.74l-3.29-3.29V54.5Z" style="fill:#6fe3ff"/><polygon points="382.46 129.86 382.46 199.14 322.46 233.78 322.46 164.5 382.45 129.86 382.46 129.86" style="fill:#c16752"/><polygon points="322.46 164.5 291.87 146.83 351.86 112.2 382.45 129.86 322.46 164.5" style="fill:#e48e66"/><polygon points="322.46 95.22 351.86 112.2 291.87 146.83 262.47 129.86 322.46 95.22" style="fill:#c16752"/><polygon points="322.46 164.5 322.46 233.78 262.46 199.14 262.46 129.86 262.47 129.86 291.87 146.83 322.46 164.5" style="fill:#e48e66"/><path d="M202.76,314.75l.91-.38a20.007,20.007,0,0,0,18.79,13.13h45.36v31.38a34.637,34.637,0,0,1-34.63,34.63v25.13H98.12V251.83a34.621,34.621,0,0,1,9.92-24.27l94.42-75.2v79.82l27.17-21.51,2.83,2.83,3.29,3.29a25.989,25.989,0,0,1,0,36.74l-3.29,3.29-30,30-3.44,3.44-.47,8.01a32.482,32.482,0,0,0,.9,7.55,37.826,37.826,0,0,0,2.53,7.18C202.25,313.58,202.51,314.16,202.76,314.75Z" style="fill:#e48e66"/><path d="M255.7,428.64V480.5a10,10,0,0,1-10,10H79.54a10,10,0,0,1-10-10V428.64a10,10,0,0,1,10-10H245.7A10,10,0,0,1,255.7,428.64Z" style="fill:#f8ec7d"/><path d="M198.55,383.19a7,7,0,0,1-7-7V358.88A7,7,0,0,1,192.726,355a39.718,39.718,0,0,0,3.583-37.531c-.213-.5-.441-1.008-.677-1.516a44.783,44.783,0,0,1-2.988-8.5,39.52,39.52,0,0,1-1.094-9.182c0-.137,0-.273.012-.41l.469-8.01a7,7,0,0,1,2.039-4.54l36.73-36.73a19.008,19.008,0,0,0,0-26.84l-1.712-1.713L150.8,282.018a7,7,0,0,1-8.692-10.976l83.181-65.86a7,7,0,0,1,9.3.538l6.12,6.12a33.026,33.026,0,0,1,0,46.637l-34.85,34.85-.3,5.135a25.528,25.528,0,0,0,.708,5.732,30.851,30.851,0,0,0,2.062,5.841c.311.668.6,1.32.884,1.984a53.674,53.674,0,0,1-3.655,48.9v15.27A7,7,0,0,1,198.55,383.19Z" style="fill:#c17557"/><path d="M333.18,305.5H311.73a7,7,0,0,1,0-14h21.45a7,7,0,1,1,0,14Z" style="fill:#e48e66"/></g></svg>
