<?xml version="1.0"?>
<svg xmlns="http://www.w3.org/2000/svg" id="Layer_1" data-name="Layer 1" viewBox="0 0 512 512" width="512" height="512"><title>product distribution</title><g id="_Group_2" data-name=" Group 2"><path d="M255,135.22a7,7,0,0,1-7-7v-57a7,7,0,0,1,14,0v57A7,7,0,0,1,255,135.22Z" style="fill:#f8ec7d"/><path d="M256,448.22a7,7,0,0,1-7-7v-57a7,7,0,0,1,14,0v57A7,7,0,0,1,256,448.22Z" style="fill:#f8ec7d"/><path d="M441,263.22H384a7,7,0,1,1,0-14h57a7,7,0,0,1,0,14Z" style="fill:#f8ec7d"/><path d="M128,264.22H71a7,7,0,1,1,0-14h57a7,7,0,0,1,0,14Z" style="fill:#f8ec7d"/><path d="M346,172.29a7,7,0,0,1-4.949-11.95l40.31-40.3a7,7,0,0,1,9.9,9.9l-40.31,40.3A6.979,6.979,0,0,1,346,172.29Z" style="fill:#f8ec7d"/><path d="M125.38,394.32a7,7,0,0,1-4.958-11.941l.14-.141,40.179-40.169a7,7,0,0,1,9.9,9.9l-40.3,40.292A6.978,6.978,0,0,1,125.38,394.32Z" style="fill:#f8ec7d"/><path d="M387.01,393.62a6.974,6.974,0,0,1-4.95-2.051l-40.3-40.31a7,7,0,1,1,9.9-9.9l40.3,40.311a7,7,0,0,1-4.95,11.949Z" style="fill:#f8ec7d"/><path d="M164.98,173a6.978,6.978,0,0,1-4.95-2.051l-40.3-40.309a7,7,0,0,1,9.9-9.9l40.3,40.31A7,7,0,0,1,164.98,173Z" style="fill:#f8ec7d"/><path d="M256,11.78a33.105,33.105,0,1,0,33.11,33.11A33.147,33.147,0,0,0,256,11.78Z" style="fill:#6fe3ff"/><path d="M256,434.01a33.105,33.105,0,1,0,33.11,33.1A33.142,33.142,0,0,0,256,434.01Z" style="fill:#6fe3ff"/><path d="M467.11,222.89A33.11,33.11,0,1,0,500.22,256,33.143,33.143,0,0,0,467.11,222.89Z" style="fill:#6fe3ff"/><path d="M44.89,222.89A33.11,33.11,0,1,0,77.99,256,33.147,33.147,0,0,0,44.89,222.89Z" style="fill:#6fe3ff"/><path d="M405.28,139.83a32.889,32.889,0,0,0,23.41-9.7l0,0a33.1,33.1,0,1,0-23.412,9.7Z" style="fill:#6fe3ff"/><path d="M130.13,381.871a33.1,33.1,0,0,0-46.82,0l0,0a33.106,33.106,0,1,0,47.365.567C130.505,382.253,130.323,382.063,130.13,381.871Z" style="fill:#6fe3ff"/><path d="M405.28,372.17a33.106,33.106,0,0,0-23.41,56.519l0,0A33.106,33.106,0,1,0,405.28,372.17Z" style="fill:#6fe3ff"/><path d="M130.127,83.308a33.1,33.1,0,1,0,9.7,23.412,33.165,33.165,0,0,0-9.7-23.412Z" style="fill:#6fe3ff"/></g><path d="M256,128.68A127.54,127.54,0,1,1,128.46,256.22,127.538,127.538,0,0,1,256,128.68Z" style="fill:#e48e66"/><polygon points="336 209.81 336 302.19 256 348.38 256 255.99 336 209.81" style="fill:#e5d45a"/><polygon points="256 255.99 215.22 232.45 295.21 186.26 336 209.81 256 255.99" style="fill:#f8ec7d"/><polygon points="295.21 186.26 215.22 232.45 176 209.81 256 163.62 295.21 186.26" style="fill:#e5d45a"/><polygon points="256 255.99 256 348.38 176 302.19 176 209.81 215.22 232.45 256 255.99" style="fill:#f8ec7d"/></svg>
